<svg data-v-fde0c5aa="" xmlns="http://www.w3.org/2000/svg" viewBox="0 0 300 300" class="iconLeft"><!----><defs data-v-fde0c5aa=""><!----></defs><rect data-v-fde0c5aa="" fill="transparent" x="0" y="0" width="300px" height="300px" class="logo-background-square"></rect><defs data-v-fde0c5aa=""><!----></defs><g data-v-fde0c5aa="" id="6424b1e5-3187-4e93-8e76-81c484efd5d2" fill="#000000" transform="matrix(1.8528790017046606,0,0,1.8528790017046606,86.07024810114831,132.80528291719202)"><path d="M2.76 4.12L0.87 4.12L0.87 14.92L2.69 14.92L2.74 14.50C3.12 14.87 3.68 15.09 4.49 15.09C6.02 15.09 7.25 14.11 7.25 11.89L7.25 9.65C7.25 7.49 6.36 6.34 4.55 6.34C3.82 6.34 3.18 6.54 2.76 6.92ZM2.76 9.39C2.76 8.41 3.23 7.99 4.07 7.99C4.98 7.99 5.36 8.48 5.36 9.62L5.36 11.80C5.36 13.01 4.87 13.43 4.06 13.43C3.30 13.43 2.76 13.05 2.76 11.94ZM10.70 6.51L8.81 6.51L8.81 14.92L10.70 14.92ZM10.70 3.47L8.81 3.47L8.81 5.28L10.70 5.28ZM16.80 14.92L18.47 14.92L18.47 9.24C18.47 7.07 17.25 6.34 15.46 6.34C13.48 6.34 12.45 7.17 12.45 9.24L14.14 9.24C14.14 8.26 14.59 7.90 15.44 7.90C16.27 7.90 16.67 8.32 16.67 9.28L16.67 10.14C16.28 10.09 15.82 10.05 15.46 10.05C13.16 10.05 12.19 11.00 12.19 12.70C12.19 14.25 13.19 15.09 14.62 15.09C15.55 15.09 16.28 14.80 16.73 14.28ZM16.67 12.05C16.67 13.01 15.99 13.54 15.22 13.54C14.45 13.54 14.06 13.19 14.06 12.54C14.06 11.77 14.48 11.37 15.61 11.37C15.88 11.37 16.38 11.40 16.67 11.45ZM25.49 6.51L23.60 6.51L23.60 14.92L25.49 14.92ZM25.49 3.47L23.60 3.47L23.60 5.28L25.49 5.28ZM27.23 6.51L27.23 14.92L29.12 14.92L29.12 9.42C29.12 8.44 29.61 8.01 30.41 8.01C31.35 8.01 31.65 8.47 31.65 9.58L31.65 14.92L33.54 14.92L33.54 9.38C33.54 7.34 32.80 6.34 30.98 6.34C30.09 6.34 29.39 6.59 28.95 7.10L28.87 6.51ZM37.84 12.77L36.46 6.51L34.33 6.51L36.64 14.92L39.03 14.92L41.33 6.51L39.26 6.51ZM46.65 12.40C46.61 13.13 46.30 13.54 45.33 13.54C44.37 13.54 43.99 13.02 43.99 11.98L43.99 11.28L48.47 11.28L48.47 9.55C48.47 7.34 47.45 6.34 45.33 6.34C43.18 6.34 42.14 7.49 42.14 9.58L42.14 11.79C42.14 14.11 43.16 15.09 45.35 15.09C47.50 15.09 48.34 14.15 48.40 12.40ZM45.35 7.91C46.31 7.91 46.68 8.43 46.68 9.53L46.68 9.84L43.99 9.84L43.99 9.59C43.99 8.39 44.37 7.91 45.35 7.91ZM53.00 9.77C51.93 9.60 51.59 9.38 51.59 8.74C51.59 8.26 51.94 7.95 52.75 7.95C53.65 7.95 53.98 8.33 54.00 8.96L55.73 8.96C55.73 7.28 54.71 6.34 52.74 6.34C50.89 6.34 49.77 7.22 49.77 8.82C49.77 10.58 50.82 11.20 52.56 11.44C53.65 11.58 54.04 11.82 54.04 12.57C54.04 13.16 53.61 13.48 52.81 13.48C51.83 13.48 51.42 13.12 51.41 12.42L49.62 12.42C49.62 14.10 50.60 15.09 52.70 15.09C54.70 15.09 55.90 14.17 55.90 12.45C55.90 10.56 54.52 10.00 53.00 9.77ZM60.21 13.38C59.43 13.38 59.14 13.08 59.14 12.01L59.14 8.55L60.82 8.55L60.82 6.92L59.14 6.92L59.14 4.97L57.20 4.97L57.20 11.96C57.20 14.07 57.82 15.09 59.77 15.09C60.20 15.09 60.63 15.04 60.82 14.99L60.82 13.31C60.65 13.36 60.42 13.38 60.21 13.38ZM66.09 6.34C65.14 6.34 64.51 6.59 64.04 7.08L63.95 6.51L62.31 6.51L62.31 14.92L64.20 14.92L64.20 9.39C64.20 8.44 64.71 8.01 65.49 8.01C66.43 8.01 66.74 8.47 66.74 9.62L66.74 14.92L68.63 14.92L68.63 9.60C68.63 8.46 69.13 8.01 69.93 8.01C70.87 8.01 71.18 8.47 71.18 9.58L71.18 14.92L73.07 14.92L73.07 9.38C73.07 7.28 72.34 6.34 70.39 6.34C69.37 6.34 68.57 6.69 68.11 7.34C67.69 6.65 67.03 6.34 66.09 6.34ZM79.07 12.40C79.03 13.13 78.72 13.54 77.76 13.54C76.79 13.54 76.41 13.02 76.41 11.98L76.41 11.28L80.89 11.28L80.89 9.55C80.89 7.34 79.87 6.34 77.76 6.34C75.60 6.34 74.56 7.49 74.56 9.58L74.56 11.79C74.56 14.11 75.59 15.09 77.77 15.09C79.93 15.09 80.77 14.15 80.82 12.40ZM77.77 7.91C78.74 7.91 79.10 8.43 79.10 9.53L79.10 9.84L76.41 9.84L76.41 9.59C76.41 8.39 76.79 7.91 77.77 7.91ZM82.38 6.51L82.38 14.92L84.27 14.92L84.27 9.42C84.27 8.44 84.76 8.01 85.55 8.01C86.49 8.01 86.80 8.47 86.80 9.58L86.80 14.92L88.69 14.92L88.69 9.38C88.69 7.34 87.95 6.34 86.13 6.34C85.23 6.34 84.53 6.59 84.10 7.10L84.01 6.51ZM93.27 13.38C92.48 13.38 92.19 13.08 92.19 12.01L92.19 8.55L93.87 8.55L93.87 6.92L92.19 6.92L92.19 4.97L90.26 4.97L90.26 11.96C90.26 14.07 90.87 15.09 92.82 15.09C93.25 15.09 93.69 15.04 93.87 14.99L93.87 13.31C93.70 13.36 93.48 13.38 93.27 13.38Z"></path></g><defs data-v-fde0c5aa=""><linearGradient data-v-fde0c5aa="" gradientTransform="rotate(25)" id="707ab13f-c9fc-4e70-85aa-c11989eca7e6" x1="0%" y1="0%" x2="100%" y2="0%"><stop data-v-fde0c5aa="" offset="0%" stop-color="#4B279B" stop-opacity="1"></stop><stop data-v-fde0c5aa="" offset="100%" stop-color="#DF99D8" stop-opacity="1"></stop></linearGradient></defs><g data-v-fde0c5aa="" id="c58a9690-02f6-419d-8dda-dcf2cd0d89fc" stroke="none" fill="url(#707ab13f-c9fc-4e70-85aa-c11989eca7e6)" transform="matrix(1.0838204012958306,0,0,1.0838204012958306,40,131.46667098279954)"><circle cx="25.044" cy="25.043" r="6.956"></circle><circle cx="6.956" cy="25.043" r="6.956"></circle><path d="M.172 2.201H13.74v13.568H.172zM18.432 2.201H32v13.568H18.432z"></path></g><!----></svg>